#!OML:ASF Y:\EmotionMaleHayes\Project 1\Capture day 1\Session 1\Male1.ASF
:FULLY-SPECIFIED
:DEGREES
17
root -29.4325 17.577 5.86715 -14.6547 -72.5111 16.1961
lowerback 21.1902 1.02977 -7.40981
upperback 3.05164 -0.293801 2.1908
thorax -8.46469 0.0545996 6.76502
lowerneck -22.2025 -5.26311 1.96846
upperneck 15.4732 -9.23019 6.47338
head 8.72604 -3.53616 0.602264
rclavicle 3.18055e-015 3.97569e-015
rhumerus 10.753 -10.5764 -45.727
rradius 98.2597
rwrist -26.5709
rhand -16.0779 -34.8392
rfingers 7.12502
rthumb 10.125 -64.5756
lclavicle 3.18055e-015 3.97569e-015
lhumerus -6.14702 -25.2055 69.4392
lradius 91.94
lwrist 11.0071
lhand -41.0046 -40.377
lfingers 7.12502
lthumb -13.936 -10.864
rfemur -32.633 -10.0102 13.2653
rtibia 34.638
rfoot -1.49194 2.73963
rtoes 23.9149
lfemur 3.91813 -1.38923 -19.3506
ltibia 45.9767
lfoot -21.7254 9.18993
ltoes -10.2089
18
root -29.0801 17.5805 5.92424 -15.6193 -75.9378 17.6114
lowerback 21.8439 1.69479 -6.45235
upperback 3.33833 0.714658 2.01394
thorax -8.65611 0.490969 5.73143
lowerneck -22.2803 -5.53236 2.15714
upperneck 14.8051 -9.67036 6.80622
head 8.53363 -3.72687 0.627461
rclavicle -1.88845e-014 -3.4191e-014
rhumerus 10.7258 -7.91003 -48.8956
rradius 95.6384
rwrist -26.8193
rhand -16.4667 -35.8963
rfingers 7.12502
rthumb 9.74987 -65.6507
lclavicle -1.88845e-014 -3.4191e-014
lhumerus -9.16776 -24.0385 71.4816
lradius 90.2612
lwrist 12.6669
lhand -35.8655 -31.2591
lfingers 7.12502
lthumb -8.97997 -1.4702
rfemur -35.2646 -8.65829 13.8948
rtibia 37.8788
rfoot -3.69057 0.349458
rtoes 21.239
lfemur 2.85971 -2.09229 -19.7517
ltibia 42.8811
lfoot -21.2768 10.0659
ltoes -15.1262
19
root -28.7393 17.55 5.98648 -20.6079 -78.9956 23.202
lowerback 22.3937 2.29907 -6.30655
upperback 3.52826 1.43695 1.54989
thorax -8.82871 0.812394 4.91699
lowerneck -22.4225 -5.6339 2.80479
upperneck 14.4551 -10.0259 6.96639
head 8.42845 -3.85837 0.531171
rclavicle 5.96354e-016 1.74931e-014
rhumerus 10.8924 -5.09735 -52.0953
rradius 92.7747
rwrist -27.4115
rhand -18.0187 -37.1407
rfingers 7.12502
rthumb 8.25227 -66.9595
lclavicle 5.96354e-016 1.74931e-014
lhumerus -12.0718 -22.3524 73.0299
lradius 88.3486
lwrist 14.5763
lhand -29.8931 -24.857
lfingers 7.12502
lthumb -3.21425 5.09847
rfemur -38.1706 -7.53573 13.5387
rtibia 41.5519
rfoot -3.42554 -0.571693
rtoes 19.4316
lfemur 2.05138 -3.28892 -20.871
ltibia 39.1301
lfoot -20.3501 10.4671
ltoes -16.9875
20
root -28.403 17.511 6.04856 -30.9255 -81.676 34.0388
lowerback 22.6223 3.19673 -6.66556
upperback 4.00404 2.46194 1.38963
thorax -8.56219 1.26934 4.63562
lowerneck -22.2957 -6.14518 2.03001
upperneck 13.4576 -10.5952 8.02413
head 8.19152 -4.11494 0.934158
rclavicle 2.78299e-015 -4.77083e-015
rhumerus 11.1906 -2.43734 -54.2705
rradius 89.9695
rwrist -28.4872
rhand -21.8556 -36.7573
rfingers 7.12502
rthumb 4.54816 -66.6885
lclavicle 2.78299e-015 -4.77083e-015
lhumerus -13.9447 -20.6929 74.9994
lradius 85.9147
lwrist 16.6918
lhand -24.1746 -20.3104
lfingers 7.12502
lthumb 2.30873 9.65682
rfemur -40.9442 -6.32586 12.6823
rtibia 45.9656
rfoot -3.59851 -0.587452
rtoes 18.2602
lfemur 1.33391 -4.56288 -22.0531
ltibia 35.352
lfoot -20.8319 10.4703
ltoes -25.2345
21
root -28.0782 17.4491 6.12658 -48.0655 -83.6815 51.7429
lowerback 22.9143 3.79601 -6.67505
upperback 4.28527 3.15245 0.986755
thorax -8.47101 1.56693 3.97916
lowerneck -22.2269 -6.56311 1.48664
upperneck 13.1437 -11.1406 8.86769
head 8.18109 -4.33551 1.22134
rclavicle -2.14687e-014 2.38542e-015
rhumerus 10.8207 -0.0521257 -57.1282
rradius 87.8037
rwrist -27.6544
rhand -22.6354 -35.5733
rfingers 7.12502
rthumb 3.79522 -65.5192
lclavicle -2.14687e-014 2.38542e-015
lhumerus -15.9178 -18.9965 76.5286
lradius 82.6416
lwrist 18.6353
lhand -19.0587 -16.3125
lfingers 7.12502
lthumb 7.24848 13.5433
rfemur -43.7238 -5.29825 11.5881
rtibia 50.4432
rfoot -3.35737 0.11785
rtoes 18.1598
lfemur 0.0531027 -5.74764 -22.9682
ltibia 32.6573
lfoot -19.8537 9.25687
ltoes -21.881
22
root -27.7762 17.3699 6.20989 -77.2991 -84.4943 81.2839
lowerback 23.1087 4.36766 -6.90932
upperback 4.75861 3.73821 0.492222
thorax -8.09744 1.80096 3.38994
lowerneck -23.136 -7.12971 1.00885
upperneck 13.6695 -12.0023 9.49293
head 8.62374 -4.64232 1.34195
rclavicle -9.93923e-015 -3.18055e-015
rhumerus 11.4473 2.32209 -60.0125
rradius 84.6081
rwrist -26.1847
rhand -23.3788 -34.088
rfingers 7.12502
rthumb 3.07733 -64.0456
lclavicle -9.93923e-015 -3.18055e-015
lhumerus -17.5686 -17.1087 77.7091
lradius 78.9945
lwrist 20.613
lhand -15.5012 -14.3826
lfingers 7.12502
lthumb 10.6814 15.3259
rfemur -46.1231 -4.28333 10.2206
rtibia 55.4154
rfoot -3.02093 1.18419
rtoes 17.9594
lfemur -0.908148 -6.19136 -24.1282
ltibia 30.6655
lfoot -18.9191 8.96246
ltoes -17.7547
23
root -27.4794 17.2556 6.26679 -104.481 -84.3623 108.646
lowerback 23.4082 4.814 -6.99543
upperback 5.18444 4.22114 0.359579
thorax -7.83017 1.99237 3.14296
lowerneck -24.1402 -7.49148 0.735365
upperneck 14.3781 -12.5674 9.64095
head 9.09264 -4.82819 1.30858
rclavicle 4.09496e-014 0
rhumerus 13.5857 4.88647 -62.2176
rradius 79.0639
rwrist -23.5579
rhand -22.5528 -32.3176
rfingers 7.12502
rthumb 3.87493 -62.2621
lclavicle 4.09496e-014 0
lhumerus -19.1593 -15.3166 78.8527
lradius 74.9355
lwrist 22.3264
lhand -13.7956 -13.9623
lfingers 7.12502
lthumb 12.3262 15.6544
rfemur -48.1583 -3.21421 9.41312
rtibia 60.3025
rfoot -1.84037 1.28962
rtoes 20.7605
lfemur -1.85349 -5.4696 -23.8619
ltibia 29.6736
lfoot -22.9267 10.8362
ltoes -22.8455
24
root -27.1988 17.1357 6.3259 -125.211 -83.1417 129.31
lowerback 23.9565 5.32392 -7.20399
upperback 5.58135 4.7351 0.320191
thorax -7.73951 2.20343 3.0418
lowerneck -24.3721 -8.192 -0.419845
upperneck 14.5701 -13.3952 10.5879
head 9.39745 -5.15226 1.65594
rclavicle 3.06128e-014 -9.54166e-015
rhumerus 14.2291 7.21149 -64.3537
rradius 75.2995
rwrist -19.8051
rhand -20.9654 -31.4259
rfingers 7.12502
rthumb 5.40775 -61.3369
lclavicle 3.06128e-014 -9.54166e-015
lhumerus -20.5592 -13.8382 80.0667
lradius 70.4366
lwrist 23.9638
lhand -14.5722 -14.5297
lfingers 7.12502
lthumb 11.5773 15.1305
rfemur -49.4856 -2.18916 8.37112
rtibia 64.915
rfoot -2.69998 0.766374
rtoes 16.7894
lfemur -2.70966 -3.64999 -23.6224
ltibia 30.197
lfoot -24.2522 9.87722
ltoes -19.8486
25
root -26.9284 17.0046 6.38551 -138.56 -81.4632 142.487
lowerback 24.5963 5.88817 -7.26297
upperback 5.85936 5.342 0.252362
thorax -7.82057 2.46335 2.77773
lowerneck -23.6639 -8.94625 -1.62434
upperneck 13.9106 -14.2658 11.9981
head 9.31554 -5.53953 2.18957
rclavicle -5.1684e-015 2.14687e-014
rhumerus 13.7743 8.91311 -66.9283
rradius 72.1407
rwrist -15.6514
rhand -21.866 -30.4735
rfingers 7.12502
rthumb 4.53818 -60.4049
lclavicle -5.1684e-015 2.14687e-014
lhumerus -21.8288 -12.9846 81.2197
lradius 65.3358
lwrist 24.9761
lhand -16.3825 -16.3136
lfingers 7.12502
lthumb 9.83111 13.4369
rfemur -50.4 -1.25614 7.40056
rtibia 69.7651
rfoot -3.05364 -0.328939
rtoes 14.301
lfemur -3.79661 -1.0152 -23.2947
ltibia 31.9148
lfoot -24.854 9.79712
ltoes -21.3903
26
root -26.6642 16.8594 6.44297 -146.786 -79.7788 150.596
lowerback 25.1678 6.41808 -7.03486
upperback 5.93701 5.98214 0.077234
thorax -8.04979 2.74743 2.2088
lowerneck -21.9677 -9.91141 -2.73805
upperneck 13.0331 -15.4196 13.3508
head 9.02643 -6.12529 2.67239
rclavicle -4.49253e-014 -1.11319e-014
rhumerus 12.3079 10.4718 -69.1377
rradius 69.4865
rwrist -11.75
rhand -21.8048 -30.94
rfingers 7.12502
rthumb 4.59724 -60.8701
lclavicle -4.49253e-014 -1.11319e-014
lhumerus -23.1795 -12.4264 82.1924
lradius 60.515
lwrist 26.5749
lhand -18.0327 -18.3356
lfingers 7.12502
lthumb 8.23881 11.4837
rfemur -51.0416 -0.455666 6.29051
rtibia 74.2799
rfoot -3.19622 -1.63978
rtoes 13.3291
lfemur -4.7956 2.00013 -22.8513
ltibia 33.4911
lfoot -26.356 9.80531
ltoes -18.9488
27
root -26.4063 16.7089 6.49623 -152.927 -78.6266 156.698
lowerback 25.7124 6.7349 -6.23916
upperback 5.86457 6.52961 0.0355635
thorax -8.36976 2.98967 1.48748
lowerneck -20.3373 -10.8971 -3.61578
upperneck 12.5713 -16.6217 14.0943
head 8.84026 -6.76118 2.90869
rclavicle -7.95139e-016 2.22639e-014
rhumerus 10.3583 11.3392 -71.4161
rradius 66.9424
rwrist -8.14066
rhand -21.3002 -30.8783
rfingers 7.12502
rthumb 5.08445 -60.7973
lclavicle -7.95139e-016 2.22639e-014
lhumerus -24.7202 -11.0542 83.0837
lradius 55.8964
lwrist 25.7291
lhand -17.6082 -19.0443
lfingers 7.12502
lthumb 8.64844 10.7585
rfemur -51.2251 -0.109131 5.43621
rtibia 78.4708
rfoot -3.37034 -2.68735
rtoes 11.9936
lfemur -5.78302 5.19198 -21.9001
ltibia 34.7711
lfoot -28.2814 8.9432
ltoes -14.4271
28
root -26.1488 16.5546 6.55624 -157.859 -77.8906 161.618
lowerback 26.3351 6.71751 -5.24227
upperback 5.7197 6.71009 -0.00981306
thorax -8.74591 3.05407 0.761971
lowerneck -17.9812 -11.6625 -4.29284
upperneck 11.4598 -17.5548 15.0693
head 8.31238 -7.33102 3.2802
rclavicle 4.57205e-014 8.74653e-015
rhumerus 8.49478 12.003 -73.9781
rradius 64.3294
rwrist -5.24245
rhand -20.9308 -30.5087
rfingers 7.12502
rthumb 5.44114 -60.4189
lclavicle 4.57205e-014 8.74653e-015
lhumerus -26.5952 -8.90727 83.6783
lradius 51.6891
lwrist 24.1994
lhand -18.3484 -20.7403
lfingers 7.12502
lthumb 7.93412 9.09083
rfemur -50.9275 -0.259135 4.62113
rtibia 83.0949
rfoot -8.98303 -27.544
rtoes 13.3662
lfemur -6.78874 7.75908 -20.7268
ltibia 35.0307
lfoot -28.3564 9.00304
ltoes -15.4495
29
root -25.89 16.4051 6.60415 -158.666 -77.2073 162.618
lowerback 26.7184 6.6924 -5.19781
upperback 5.58461 6.65703 -0.029889
thorax -9.08012 3.02837 0.693842
lowerneck -15.6655 -12.2545 -4.99562
upperneck 10.1079 -18.1871 15.9357
head 7.69096 -7.79334 3.68326
rclavicle -2.22639e-014 -1.98785e-014
rhumerus 6.19388 13.1358 -75.7115
rradius 62.7089
rwrist -3.72912
rhand -21.4485 -30.0238
rfingers 7.12502
rthumb 4.94132 -59.9462
lclavicle -2.22639e-014 -1.98785e-014
lhumerus -28.4039 -5.16735 83.8254
lradius 47.8227
lwrist 19.8147
lhand -18.5224 -21.8305
lfingers 7.12502
lthumb 7.76618 8.00684
rfemur -50.609 -0.952265 2.93405
rtibia 87.6517
rfoot -17.4171 -52.0234
rtoes 15.7828
lfemur -8.15447 9.78789 -20.5006
ltibia 36.1817
lfoot -28.2466 7.75043
ltoes -14.3141
30
root -25.6263 16.2633 6.64848 -159.402 -76.913 163.706
lowerback 26.9307 6.4716 -5.35633
upperback 5.60344 6.34427 0.299169
thorax -9.20309 2.88608 1.24303
lowerneck -14.1885 -12.616 -5.8089
upperneck 9.07336 -18.4763 16.5327
head 7.27446 -8.05556 4.03248
rclavicle 8.34896e-015 -5.56597e-015
rhumerus 4.16877 14.5992 -76.889
rradius 61.3465
rwrist -2.68099
rhand -22.2898 -29.7567
rfingers 7.12502
rthumb 4.12893 -59.6964
lclavicle 8.34896e-015 -5.56597e-015
lhumerus -30.1371 -0.219131 83.6565
lradius 44.4029
lwrist 15.6722
lhand -18.7222 -22.386
lfingers 7.12502
lthumb 7.57333 7.45838
rfemur -50.0374 -1.81016 1.3985
rtibia 90.2928
rfoot -44.387 -74.4875
rtoes 17.1846
lfemur -10.6147 11.0678 -20.2236
ltibia 38.0752
lfoot -27.7893 7.10773
ltoes -14.1165
